# xmcd CD database file
#
# Track frame offsets:
#	150
#	15660
#	33330
#	48017
#	61690
#	78640
#	90142
#	105872
#	119902
#	133265
#	147415
#	177687
#
# Disc length: 4157 seconds
#
# Revision: 2
# Processed by: cddbd v1.4b42PL1 Copyright (c) Steve Scherf et al.
# Submitted via: CDex 1.40Beta8
#
DISCID=9b103b0c
DTITLE=The Wilkinsons - Here And Now
DYEAR=1999
DGENRE=Country
TTITLE0=Jimmy's Got A Girlfriend
TTITLE1=It Was Only A Kiss
TTITLE2=One Of Us Is In Love
TTITLE3=Till You Let Go
TTITLE4=Shame On Me
TTITLE5=Hypothetically
TTITLE6=1999
TTITLE7=Don't Look At Me Like That
TTITLE8=I'll Know Love
TTITLE9=Me Myself And I 
TTITLE10=The Only Rose
TTITLE11=Unknown
EXTD=YEAR: 1999 ID3G: 2
EXTT0=
EXTT1=
EXTT2=
EXTT3=
EXTT4=
EXTT5=
EXTT6=
EXTT7=
EXTT8=
EXTT9=
EXTT10=
EXTT11=
PLAYORDER=
